<svg xmlns="http://www.w3.org/2000/svg" viewBox="0 0 96 96" width="96" height="96">
<defs>
<linearGradient id="connect-f" x1="0" y1="0" x2="0.35" y2="1">
<stop offset="0" stop-color="#F9A45C"/><stop offset="0.52" stop-color="#F0803A"/><stop offset="1" stop-color="#DE5B22"/>
</linearGradient>
<linearGradient id="connect-s" x1="0" y1="0" x2="0" y2="1">
<stop offset="0" stop-color="#fff" stop-opacity="0.55"/><stop offset="1" stop-color="#fff" stop-opacity="0"/>
</linearGradient>
<linearGradient id="connect-e" x1="0" y1="0" x2="0" y2="1">
<stop offset="0" stop-color="#fff" stop-opacity="0.85"/><stop offset="0.55" stop-color="#fff" stop-opacity="0.08"/><stop offset="1" stop-color="#8A3410" stop-opacity="0.35"/>
</linearGradient>
<filter id="connect-d" x="-40%" y="-25%" width="180%" height="180%">
<feDropShadow dx="0" dy="7" stdDeviation="7" flood-color="#C2521C" flood-opacity="0.34"/>
</filter>
</defs>
<g filter="url(#connect-d)">
<rect x="6" y="4" width="84" height="84" rx="28" fill="url(#connect-f)"/>
<path d="M6 32C6 15 20 4 34 4h28c14 0 28 11 28 28 0 6-12 12-42 12S6 38 6 32z" fill="url(#connect-s)"/>
<rect x="6.75" y="4.75" width="82.5" height="82.5" rx="27.25" fill="none" stroke="url(#connect-e)" stroke-width="1.5"/>
</g>
<g transform="translate(24,24) scale(2)" fill="none" stroke="#fff" stroke-width="1.8" stroke-linecap="round" stroke-linejoin="round"><circle cx="6" cy="6" r="2.8"/> <circle cx="18" cy="6" r="2.8"/> <circle cx="12" cy="18.4" r="2.8"/> <path d="M7.9 8.1 10.4 16M16.1 8.1 13.6 16M8.8 6h6.4"/></g>
</svg>
