<svg xmlns="http://www.w3.org/2000/svg" viewBox="0 0 177 177" width="177" height="177" shape-rendering="crispEdges"><rect width="100%" height="100%" fill="#ffffff"/><path fill="#111111" d="M9,9h3v3h-3zM12,9h3v3h-3zM15,9h3v3h-3zM18,9h3v3h-3zM21,9h3v3h-3zM24,9h3v3h-3zM27,9h3v3h-3zM33,9h3v3h-3zM48,9h3v3h-3zM51,9h3v3h-3zM54,9h3v3h-3zM57,9h3v3h-3zM60,9h3v3h-3zM63,9h3v3h-3zM102,9h3v3h-3zM108,9h3v3h-3zM111,9h3v3h-3zM114,9h3v3h-3zM117,9h3v3h-3zM123,9h3v3h-3zM138,9h3v3h-3zM147,9h3v3h-3zM150,9h3v3h-3zM153,9h3v3h-3zM156,9h3v3h-3zM159,9h3v3h-3zM162,9h3v3h-3zM165,9h3v3h-3zM9,12h3v3h-3zM27,12h3v3h-3zM33,12h3v3h-3zM36,12h3v3h-3zM42,12h3v3h-3zM48,12h3v3h-3zM51,12h3v3h-3zM54,12h3v3h-3zM57,12h3v3h-3zM66,12h3v3h-3zM69,12h3v3h-3zM72,12h3v3h-3zM84,12h3v3h-3zM87,12h3v3h-3zM93,12h3v3h-3zM96,12h3v3h-3zM117,12h3v3h-3zM120,12h3v3h-3zM129,12h3v3h-3zM132,12h3v3h-3zM138,12h3v3h-3zM141,12h3v3h-3zM147,12h3v3h-3zM165,12h3v3h-3zM9,15h3v3h-3zM15,15h3v3h-3zM18,15h3v3h-3zM21,15h3v3h-3zM27,15h3v3h-3zM45,15h3v3h-3zM51,15h3v3h-3zM57,15h3v3h-3zM66,15h3v3h-3zM72,15h3v3h-3zM75,15h3v3h-3zM78,15h3v3h-3zM84,15h3v3h-3zM87,15h3v3h-3zM90,15h3v3h-3zM93,15h3v3h-3zM96,15h3v3h-3zM102,15h3v3h-3zM105,15h3v3h-3zM108,15h3v3h-3zM111,15h3v3h-3zM123,15h3v3h-3zM126,15h3v3h-3zM141,15h3v3h-3zM147,15h3v3h-3zM153,15h3v3h-3zM156,15h3v3h-3zM159,15h3v3h-3zM165,15h3v3h-3zM9,18h3v3h-3zM15,18h3v3h-3zM18,18h3v3h-3zM21,18h3v3h-3zM27,18h3v3h-3zM33,18h3v3h-3zM36,18h3v3h-3zM42,18h3v3h-3zM45,18h3v3h-3zM51,18h3v3h-3zM54,18h3v3h-3zM60,18h3v3h-3zM63,18h3v3h-3zM66,18h3v3h-3zM69,18h3v3h-3zM75,18h3v3h-3zM81,18h3v3h-3zM90,18h3v3h-3zM99,18h3v3h-3zM105,18h3v3h-3zM120,18h3v3h-3zM129,18h3v3h-3zM135,18h3v3h-3zM147,18h3v3h-3zM153,18h3v3h-3zM156,18h3v3h-3zM159,18h3v3h-3zM165,18h3v3h-3zM9,21h3v3h-3zM15,21h3v3h-3zM18,21h3v3h-3zM21,21h3v3h-3zM27,21h3v3h-3zM42,21h3v3h-3zM45,21h3v3h-3zM51,21h3v3h-3zM63,21h3v3h-3zM66,21h3v3h-3zM72,21h3v3h-3zM78,21h3v3h-3zM81,21h3v3h-3zM84,21h3v3h-3zM87,21h3v3h-3zM90,21h3v3h-3zM93,21h3v3h-3zM102,21h3v3h-3zM105,21h3v3h-3zM111,21h3v3h-3zM120,21h3v3h-3zM126,21h3v3h-3zM135,21h3v3h-3zM138,21h3v3h-3zM141,21h3v3h-3zM147,21h3v3h-3zM153,21h3v3h-3zM156,21h3v3h-3zM159,21h3v3h-3zM165,21h3v3h-3zM9,24h3v3h-3zM27,24h3v3h-3zM36,24h3v3h-3zM39,24h3v3h-3zM51,24h3v3h-3zM57,24h3v3h-3zM60,24h3v3h-3zM78,24h3v3h-3zM81,24h3v3h-3zM93,24h3v3h-3zM96,24h3v3h-3zM102,24h3v3h-3zM105,24h3v3h-3zM108,24h3v3h-3zM114,24h3v3h-3zM123,24h3v3h-3zM129,24h3v3h-3zM132,24h3v3h-3zM135,24h3v3h-3zM147,24h3v3h-3zM165,24h3v3h-3zM9,27h3v3h-3zM12,27h3v3h-3zM15,27h3v3h-3zM18,27h3v3h-3zM21,27h3v3h-3zM24,27h3v3h-3zM27,27h3v3h-3zM33,27h3v3h-3zM39,27h3v3h-3zM45,27h3v3h-3zM51,27h3v3h-3zM57,27h3v3h-3zM63,27h3v3h-3zM69,27h3v3h-3zM75,27h3v3h-3zM81,27h3v3h-3zM87,27h3v3h-3zM93,27h3v3h-3zM99,27h3v3h-3zM105,27h3v3h-3zM111,27h3v3h-3zM117,27h3v3h-3zM123,27h3v3h-3zM129,27h3v3h-3zM135,27h3v3h-3zM141,27h3v3h-3zM147,27h3v3h-3zM150,27h3v3h-3zM153,27h3v3h-3zM156,27h3v3h-3zM159,27h3v3h-3zM162,27h3v3h-3zM165,27h3v3h-3zM33,30h3v3h-3zM39,30h3v3h-3zM48,30h3v3h-3zM51,30h3v3h-3zM54,30h3v3h-3zM69,30h3v3h-3zM72,30h3v3h-3zM81,30h3v3h-3zM93,30h3v3h-3zM96,30h3v3h-3zM105,30h3v3h-3zM111,30h3v3h-3zM114,30h3v3h-3zM117,30h3v3h-3zM120,30h3v3h-3zM126,30h3v3h-3zM135,30h3v3h-3zM138,30h3v3h-3zM9,33h3v3h-3zM15,33h3v3h-3zM18,33h3v3h-3zM24,33h3v3h-3zM27,33h3v3h-3zM30,33h3v3h-3zM39,33h3v3h-3zM42,33h3v3h-3zM45,33h3v3h-3zM63,33h3v3h-3zM66,33h3v3h-3zM72,33h3v3h-3zM81,33h3v3h-3zM84,33h3v3h-3zM87,33h3v3h-3zM90,33h3v3h-3zM93,33h3v3h-3zM105,33h3v3h-3zM108,33h3v3h-3zM117,33h3v3h-3zM126,33h3v3h-3zM141,33h3v3h-3zM147,33h3v3h-3zM156,33h3v3h-3zM162,33h3v3h-3zM165,33h3v3h-3zM12,36h3v3h-3zM15,36h3v3h-3zM18,36h3v3h-3zM21,36h3v3h-3zM24,36h3v3h-3zM36,36h3v3h-3zM51,36h3v3h-3zM57,36h3v3h-3zM60,36h3v3h-3zM63,36h3v3h-3zM75,36h3v3h-3zM84,36h3v3h-3zM102,36h3v3h-3zM108,36h3v3h-3zM114,36h3v3h-3zM117,36h3v3h-3zM123,36h3v3h-3zM126,36h3v3h-3zM132,36h3v3h-3zM138,36h3v3h-3zM144,36h3v3h-3zM150,36h3v3h-3zM165,36h3v3h-3zM9,39h3v3h-3zM15,39h3v3h-3zM18,39h3v3h-3zM24,39h3v3h-3zM27,39h3v3h-3zM33,39h3v3h-3zM36,39h3v3h-3zM39,39h3v3h-3zM42,39h3v3h-3zM54,39h3v3h-3zM57,39h3v3h-3zM60,39h3v3h-3zM75,39h3v3h-3zM81,39h3v3h-3zM84,39h3v3h-3zM87,39h3v3h-3zM90,39h3v3h-3zM96,39h3v3h-3zM105,39h3v3h-3zM108,39h3v3h-3zM111,39h3v3h-3zM114,39h3v3h-3zM117,39h3v3h-3zM123,39h3v3h-3zM126,39h3v3h-3zM132,39h3v3h-3zM138,39h3v3h-3zM141,39h3v3h-3zM144,39h3v3h-3zM147,39h3v3h-3zM150,39h3v3h-3zM162,39h3v3h-3zM9,42h3v3h-3zM15,42h3v3h-3zM18,42h3v3h-3zM24,42h3v3h-3zM33,42h3v3h-3zM45,42h3v3h-3zM51,42h3v3h-3zM54,42h3v3h-3zM57,42h3v3h-3zM60,42h3v3h-3zM66,42h3v3h-3zM72,42h3v3h-3zM78,42h3v3h-3zM84,42h3v3h-3zM87,42h3v3h-3zM93,42h3v3h-3zM102,42h3v3h-3zM108,42h3v3h-3zM126,42h3v3h-3zM135,42h3v3h-3zM138,42h3v3h-3zM147,42h3v3h-3zM153,42h3v3h-3zM156,42h3v3h-3zM165,42h3v3h-3zM9,45h3v3h-3zM12,45h3v3h-3zM15,45h3v3h-3zM18,45h3v3h-3zM24,45h3v3h-3zM27,45h3v3h-3zM30,45h3v3h-3zM36,45h3v3h-3zM51,45h3v3h-3zM54,45h3v3h-3zM66,45h3v3h-3zM69,45h3v3h-3zM72,45h3v3h-3zM81,45h3v3h-3zM84,45h3v3h-3zM87,45h3v3h-3zM99,45h3v3h-3zM102,45h3v3h-3zM105,45h3v3h-3zM114,45h3v3h-3zM117,45h3v3h-3zM135,45h3v3h-3zM141,45h3v3h-3zM144,45h3v3h-3zM150,45h3v3h-3zM153,45h3v3h-3zM156,45h3v3h-3zM159,45h3v3h-3zM162,45h3v3h-3zM165,45h3v3h-3zM9,48h3v3h-3zM15,48h3v3h-3zM18,48h3v3h-3zM21,48h3v3h-3zM24,48h3v3h-3zM33,48h3v3h-3zM39,48h3v3h-3zM57,48h3v3h-3zM66,48h3v3h-3zM72,48h3v3h-3zM84,48h3v3h-3zM87,48h3v3h-3zM96,48h3v3h-3zM99,48h3v3h-3zM102,48h3v3h-3zM105,48h3v3h-3zM108,48h3v3h-3zM111,48h3v3h-3zM114,48h3v3h-3zM120,48h3v3h-3zM126,48h3v3h-3zM132,48h3v3h-3zM135,48h3v3h-3zM141,48h3v3h-3zM150,48h3v3h-3zM156,48h3v3h-3zM165,48h3v3h-3zM9,51h3v3h-3zM18,51h3v3h-3zM21,51h3v3h-3zM24,51h3v3h-3zM27,51h3v3h-3zM33,51h3v3h-3zM36,51h3v3h-3zM42,51h3v3h-3zM45,51h3v3h-3zM54,51h3v3h-3zM57,51h3v3h-3zM63,51h3v3h-3zM69,51h3v3h-3zM72,51h3v3h-3zM75,51h3v3h-3zM84,51h3v3h-3zM96,51h3v3h-3zM105,51h3v3h-3zM108,51h3v3h-3zM111,51h3v3h-3zM114,51h3v3h-3zM126,51h3v3h-3zM129,51h3v3h-3zM135,51h3v3h-3zM141,51h3v3h-3zM144,51h3v3h-3zM150,51h3v3h-3zM162,51h3v3h-3zM165,51h3v3h-3zM9,54h3v3h-3zM18,54h3v3h-3zM21,54h3v3h-3zM33,54h3v3h-3zM36,54h3v3h-3zM39,54h3v3h-3zM42,54h3v3h-3zM45,54h3v3h-3zM48,54h3v3h-3zM57,54h3v3h-3zM60,54h3v3h-3zM69,54h3v3h-3zM84,54h3v3h-3zM87,54h3v3h-3zM90,54h3v3h-3zM96,54h3v3h-3zM99,54h3v3h-3zM108,54h3v3h-3zM111,54h3v3h-3zM117,54h3v3h-3zM120,54h3v3h-3zM129,54h3v3h-3zM150,54h3v3h-3zM156,54h3v3h-3zM165,54h3v3h-3zM12,57h3v3h-3zM21,57h3v3h-3zM24,57h3v3h-3zM27,57h3v3h-3zM33,57h3v3h-3zM39,57h3v3h-3zM42,57h3v3h-3zM45,57h3v3h-3zM54,57h3v3h-3zM57,57h3v3h-3zM63,57h3v3h-3zM66,57h3v3h-3zM69,57h3v3h-3zM72,57h3v3h-3zM75,57h3v3h-3zM78,57h3v3h-3zM84,57h3v3h-3zM90,57h3v3h-3zM105,57h3v3h-3zM108,57h3v3h-3zM114,57h3v3h-3zM117,57h3v3h-3zM120,57h3v3h-3zM123,57h3v3h-3zM126,57h3v3h-3zM132,57h3v3h-3zM138,57h3v3h-3zM162,57h3v3h-3zM165,57h3v3h-3zM9,60h3v3h-3zM15,60h3v3h-3zM18,60h3v3h-3zM21,60h3v3h-3zM24,60h3v3h-3zM33,60h3v3h-3zM36,60h3v3h-3zM48,60h3v3h-3zM51,60h3v3h-3zM54,60h3v3h-3zM57,60h3v3h-3zM69,60h3v3h-3zM72,60h3v3h-3zM75,60h3v3h-3zM84,60h3v3h-3zM87,60h3v3h-3zM90,60h3v3h-3zM93,60h3v3h-3zM99,60h3v3h-3zM105,60h3v3h-3zM108,60h3v3h-3zM114,60h3v3h-3zM120,60h3v3h-3zM123,60h3v3h-3zM126,60h3v3h-3zM129,60h3v3h-3zM132,60h3v3h-3zM135,60h3v3h-3zM138,60h3v3h-3zM144,60h3v3h-3zM147,60h3v3h-3zM150,60h3v3h-3zM159,60h3v3h-3zM12,63h3v3h-3zM18,63h3v3h-3zM21,63h3v3h-3zM27,63h3v3h-3zM30,63h3v3h-3zM36,63h3v3h-3zM39,63h3v3h-3zM42,63h3v3h-3zM45,63h3v3h-3zM54,63h3v3h-3zM75,63h3v3h-3zM84,63h3v3h-3zM87,63h3v3h-3zM90,63h3v3h-3zM93,63h3v3h-3zM96,63h3v3h-3zM99,63h3v3h-3zM105,63h3v3h-3zM117,63h3v3h-3zM120,63h3v3h-3zM123,63h3v3h-3zM132,63h3v3h-3zM138,63h3v3h-3zM144,63h3v3h-3zM147,63h3v3h-3zM156,63h3v3h-3zM9,66h3v3h-3zM12,66h3v3h-3zM15,66h3v3h-3zM18,66h3v3h-3zM21,66h3v3h-3zM24,66h3v3h-3zM30,66h3v3h-3zM36,66h3v3h-3zM39,66h3v3h-3zM51,66h3v3h-3zM54,66h3v3h-3zM60,66h3v3h-3zM63,66h3v3h-3zM66,66h3v3h-3zM69,66h3v3h-3zM72,66h3v3h-3zM81,66h3v3h-3zM87,66h3v3h-3zM90,66h3v3h-3zM102,66h3v3h-3zM108,66h3v3h-3zM114,66h3v3h-3zM126,66h3v3h-3zM129,66h3v3h-3zM135,66h3v3h-3zM138,66h3v3h-3zM144,66h3v3h-3zM150,66h3v3h-3zM153,66h3v3h-3zM156,66h3v3h-3zM159,66h3v3h-3zM162,66h3v3h-3zM165,66h3v3h-3zM9,69h3v3h-3zM18,69h3v3h-3zM21,69h3v3h-3zM27,69h3v3h-3zM30,69h3v3h-3zM33,69h3v3h-3zM45,69h3v3h-3zM60,69h3v3h-3zM63,69h3v3h-3zM66,69h3v3h-3zM78,69h3v3h-3zM84,69h3v3h-3zM90,69h3v3h-3zM93,69h3v3h-3zM96,69h3v3h-3zM102,69h3v3h-3zM105,69h3v3h-3zM111,69h3v3h-3zM117,69h3v3h-3zM132,69h3v3h-3zM138,69h3v3h-3zM141,69h3v3h-3zM144,69h3v3h-3zM147,69h3v3h-3zM150,69h3v3h-3zM156,69h3v3h-3zM159,69h3v3h-3zM162,69h3v3h-3zM9,72h3v3h-3zM18,72h3v3h-3zM33,72h3v3h-3zM36,72h3v3h-3zM39,72h3v3h-3zM60,72h3v3h-3zM84,72h3v3h-3zM93,72h3v3h-3zM96,72h3v3h-3zM102,72h3v3h-3zM111,72h3v3h-3zM114,72h3v3h-3zM117,72h3v3h-3zM123,72h3v3h-3zM126,72h3v3h-3zM138,72h3v3h-3zM162,72h3v3h-3zM165,72h3v3h-3zM9,75h3v3h-3zM18,75h3v3h-3zM21,75h3v3h-3zM27,75h3v3h-3zM30,75h3v3h-3zM36,75h3v3h-3zM39,75h3v3h-3zM42,75h3v3h-3zM45,75h3v3h-3zM51,75h3v3h-3zM57,75h3v3h-3zM63,75h3v3h-3zM66,75h3v3h-3zM69,75h3v3h-3zM84,75h3v3h-3zM87,75h3v3h-3zM90,75h3v3h-3zM93,75h3v3h-3zM99,75h3v3h-3zM102,75h3v3h-3zM105,75h3v3h-3zM111,75h3v3h-3zM114,75h3v3h-3zM117,75h3v3h-3zM123,75h3v3h-3zM126,75h3v3h-3zM132,75h3v3h-3zM135,75h3v3h-3zM138,75h3v3h-3zM147,75h3v3h-3zM150,75h3v3h-3zM156,75h3v3h-3zM9,78h3v3h-3zM12,78h3v3h-3zM24,78h3v3h-3zM33,78h3v3h-3zM36,78h3v3h-3zM42,78h3v3h-3zM48,78h3v3h-3zM60,78h3v3h-3zM72,78h3v3h-3zM75,78h3v3h-3zM81,78h3v3h-3zM87,78h3v3h-3zM90,78h3v3h-3zM93,78h3v3h-3zM99,78h3v3h-3zM105,78h3v3h-3zM108,78h3v3h-3zM111,78h3v3h-3zM123,78h3v3h-3zM129,78h3v3h-3zM141,78h3v3h-3zM144,78h3v3h-3zM147,78h3v3h-3zM150,78h3v3h-3zM153,78h3v3h-3zM162,78h3v3h-3zM21,81h3v3h-3zM24,81h3v3h-3zM27,81h3v3h-3zM30,81h3v3h-3zM33,81h3v3h-3zM36,81h3v3h-3zM39,81h3v3h-3zM42,81h3v3h-3zM48,81h3v3h-3zM51,81h3v3h-3zM54,81h3v3h-3zM66,81h3v3h-3zM69,81h3v3h-3zM72,81h3v3h-3zM75,81h3v3h-3zM78,81h3v3h-3zM81,81h3v3h-3zM84,81h3v3h-3zM87,81h3v3h-3zM90,81h3v3h-3zM93,81h3v3h-3zM96,81h3v3h-3zM102,81h3v3h-3zM105,81h3v3h-3zM120,81h3v3h-3zM129,81h3v3h-3zM135,81h3v3h-3zM138,81h3v3h-3zM141,81h3v3h-3zM144,81h3v3h-3zM147,81h3v3h-3zM150,81h3v3h-3zM153,81h3v3h-3zM159,81h3v3h-3zM162,81h3v3h-3zM9,84h3v3h-3zM18,84h3v3h-3zM21,84h3v3h-3zM33,84h3v3h-3zM60,84h3v3h-3zM63,84h3v3h-3zM69,84h3v3h-3zM72,84h3v3h-3zM78,84h3v3h-3zM81,84h3v3h-3zM93,84h3v3h-3zM96,84h3v3h-3zM102,84h3v3h-3zM105,84h3v3h-3zM111,84h3v3h-3zM126,84h3v3h-3zM132,84h3v3h-3zM135,84h3v3h-3zM138,84h3v3h-3zM141,84h3v3h-3zM153,84h3v3h-3zM156,84h3v3h-3zM159,84h3v3h-3zM162,84h3v3h-3zM165,84h3v3h-3zM9,87h3v3h-3zM12,87h3v3h-3zM15,87h3v3h-3zM18,87h3v3h-3zM21,87h3v3h-3zM27,87h3v3h-3zM33,87h3v3h-3zM36,87h3v3h-3zM39,87h3v3h-3zM45,87h3v3h-3zM51,87h3v3h-3zM54,87h3v3h-3zM69,87h3v3h-3zM72,87h3v3h-3zM75,87h3v3h-3zM78,87h3v3h-3zM81,87h3v3h-3zM87,87h3v3h-3zM93,87h3v3h-3zM96,87h3v3h-3zM99,87h3v3h-3zM111,87h3v3h-3zM120,87h3v3h-3zM132,87h3v3h-3zM135,87h3v3h-3zM138,87h3v3h-3zM141,87h3v3h-3zM147,87h3v3h-3zM153,87h3v3h-3zM156,87h3v3h-3zM165,87h3v3h-3zM9,90h3v3h-3zM15,90h3v3h-3zM21,90h3v3h-3zM33,90h3v3h-3zM36,90h3v3h-3zM39,90h3v3h-3zM48,90h3v3h-3zM57,90h3v3h-3zM63,90h3v3h-3zM66,90h3v3h-3zM69,90h3v3h-3zM81,90h3v3h-3zM93,90h3v3h-3zM96,90h3v3h-3zM99,90h3v3h-3zM105,90h3v3h-3zM114,90h3v3h-3zM120,90h3v3h-3zM123,90h3v3h-3zM129,90h3v3h-3zM132,90h3v3h-3zM141,90h3v3h-3zM153,90h3v3h-3zM156,90h3v3h-3zM162,90h3v3h-3zM18,93h3v3h-3zM21,93h3v3h-3zM24,93h3v3h-3zM27,93h3v3h-3zM30,93h3v3h-3zM33,93h3v3h-3zM36,93h3v3h-3zM39,93h3v3h-3zM42,93h3v3h-3zM51,93h3v3h-3zM54,93h3v3h-3zM63,93h3v3h-3zM66,93h3v3h-3zM72,93h3v3h-3zM75,93h3v3h-3zM81,93h3v3h-3zM84,93h3v3h-3zM87,93h3v3h-3zM90,93h3v3h-3zM93,93h3v3h-3zM102,93h3v3h-3zM117,93h3v3h-3zM120,93h3v3h-3zM123,93h3v3h-3zM129,93h3v3h-3zM141,93h3v3h-3zM144,93h3v3h-3zM147,93h3v3h-3zM150,93h3v3h-3zM153,93h3v3h-3zM156,93h3v3h-3zM162,93h3v3h-3zM12,96h3v3h-3zM18,96h3v3h-3zM21,96h3v3h-3zM33,96h3v3h-3zM39,96h3v3h-3zM48,96h3v3h-3zM51,96h3v3h-3zM60,96h3v3h-3zM75,96h3v3h-3zM78,96h3v3h-3zM90,96h3v3h-3zM93,96h3v3h-3zM96,96h3v3h-3zM99,96h3v3h-3zM108,96h3v3h-3zM111,96h3v3h-3zM114,96h3v3h-3zM120,96h3v3h-3zM123,96h3v3h-3zM129,96h3v3h-3zM132,96h3v3h-3zM135,96h3v3h-3zM138,96h3v3h-3zM141,96h3v3h-3zM144,96h3v3h-3zM147,96h3v3h-3zM156,96h3v3h-3zM9,99h3v3h-3zM15,99h3v3h-3zM18,99h3v3h-3zM21,99h3v3h-3zM24,99h3v3h-3zM27,99h3v3h-3zM30,99h3v3h-3zM33,99h3v3h-3zM36,99h3v3h-3zM42,99h3v3h-3zM45,99h3v3h-3zM57,99h3v3h-3zM63,99h3v3h-3zM69,99h3v3h-3zM78,99h3v3h-3zM84,99h3v3h-3zM90,99h3v3h-3zM96,99h3v3h-3zM102,99h3v3h-3zM108,99h3v3h-3zM117,99h3v3h-3zM126,99h3v3h-3zM132,99h3v3h-3zM135,99h3v3h-3zM141,99h3v3h-3zM18,102h3v3h-3zM24,102h3v3h-3zM30,102h3v3h-3zM33,102h3v3h-3zM36,102h3v3h-3zM42,102h3v3h-3zM48,102h3v3h-3zM60,102h3v3h-3zM78,102h3v3h-3zM81,102h3v3h-3zM87,102h3v3h-3zM93,102h3v3h-3zM99,102h3v3h-3zM105,102h3v3h-3zM108,102h3v3h-3zM111,102h3v3h-3zM114,102h3v3h-3zM120,102h3v3h-3zM129,102h3v3h-3zM132,102h3v3h-3zM135,102h3v3h-3zM138,102h3v3h-3zM147,102h3v3h-3zM150,102h3v3h-3zM159,102h3v3h-3zM162,102h3v3h-3zM12,105h3v3h-3zM15,105h3v3h-3zM18,105h3v3h-3zM21,105h3v3h-3zM24,105h3v3h-3zM27,105h3v3h-3zM36,105h3v3h-3zM42,105h3v3h-3zM45,105h3v3h-3zM54,105h3v3h-3zM66,105h3v3h-3zM69,105h3v3h-3zM72,105h3v3h-3zM75,105h3v3h-3zM81,105h3v3h-3zM84,105h3v3h-3zM87,105h3v3h-3zM90,105h3v3h-3zM93,105h3v3h-3zM96,105h3v3h-3zM102,105h3v3h-3zM105,105h3v3h-3zM108,105h3v3h-3zM111,105h3v3h-3zM120,105h3v3h-3zM132,105h3v3h-3zM138,105h3v3h-3zM141,105h3v3h-3zM150,105h3v3h-3zM153,105h3v3h-3zM156,105h3v3h-3zM159,105h3v3h-3zM165,105h3v3h-3zM9,108h3v3h-3zM30,108h3v3h-3zM33,108h3v3h-3zM36,108h3v3h-3zM45,108h3v3h-3zM48,108h3v3h-3zM51,108h3v3h-3zM69,108h3v3h-3zM78,108h3v3h-3zM81,108h3v3h-3zM87,108h3v3h-3zM102,108h3v3h-3zM111,108h3v3h-3zM114,108h3v3h-3zM120,108h3v3h-3zM123,108h3v3h-3zM132,108h3v3h-3zM141,108h3v3h-3zM144,108h3v3h-3zM147,108h3v3h-3zM150,108h3v3h-3zM153,108h3v3h-3zM156,108h3v3h-3zM24,111h3v3h-3zM27,111h3v3h-3zM33,111h3v3h-3zM39,111h3v3h-3zM42,111h3v3h-3zM54,111h3v3h-3zM60,111h3v3h-3zM63,111h3v3h-3zM69,111h3v3h-3zM78,111h3v3h-3zM81,111h3v3h-3zM84,111h3v3h-3zM87,111h3v3h-3zM96,111h3v3h-3zM102,111h3v3h-3zM105,111h3v3h-3zM111,111h3v3h-3zM114,111h3v3h-3zM117,111h3v3h-3zM120,111h3v3h-3zM132,111h3v3h-3zM138,111h3v3h-3zM150,111h3v3h-3zM156,111h3v3h-3zM162,111h3v3h-3zM12,114h3v3h-3zM21,114h3v3h-3zM36,114h3v3h-3zM42,114h3v3h-3zM51,114h3v3h-3zM63,114h3v3h-3zM66,114h3v3h-3zM72,114h3v3h-3zM75,114h3v3h-3zM78,114h3v3h-3zM93,114h3v3h-3zM96,114h3v3h-3zM99,114h3v3h-3zM108,114h3v3h-3zM111,114h3v3h-3zM114,114h3v3h-3zM117,114h3v3h-3zM126,114h3v3h-3zM129,114h3v3h-3zM135,114h3v3h-3zM141,114h3v3h-3zM162,114h3v3h-3zM165,114h3v3h-3zM9,117h3v3h-3zM15,117h3v3h-3zM18,117h3v3h-3zM24,117h3v3h-3zM27,117h3v3h-3zM30,117h3v3h-3zM36,117h3v3h-3zM39,117h3v3h-3zM48,117h3v3h-3zM51,117h3v3h-3zM54,117h3v3h-3zM60,117h3v3h-3zM66,117h3v3h-3zM69,117h3v3h-3zM72,117h3v3h-3zM75,117h3v3h-3zM78,117h3v3h-3zM87,117h3v3h-3zM93,117h3v3h-3zM96,117h3v3h-3zM99,117h3v3h-3zM102,117h3v3h-3zM108,117h3v3h-3zM114,117h3v3h-3zM126,117h3v3h-3zM129,117h3v3h-3zM135,117h3v3h-3zM144,117h3v3h-3zM150,117h3v3h-3zM159,117h3v3h-3zM165,117h3v3h-3zM18,120h3v3h-3zM24,120h3v3h-3zM30,120h3v3h-3zM33,120h3v3h-3zM36,120h3v3h-3zM42,120h3v3h-3zM45,120h3v3h-3zM51,120h3v3h-3zM54,120h3v3h-3zM69,120h3v3h-3zM72,120h3v3h-3zM75,120h3v3h-3zM81,120h3v3h-3zM87,120h3v3h-3zM93,120h3v3h-3zM99,120h3v3h-3zM105,120h3v3h-3zM111,120h3v3h-3zM126,120h3v3h-3zM135,120h3v3h-3zM138,120h3v3h-3zM147,120h3v3h-3zM156,120h3v3h-3zM159,120h3v3h-3zM162,120h3v3h-3zM12,123h3v3h-3zM18,123h3v3h-3zM21,123h3v3h-3zM27,123h3v3h-3zM30,123h3v3h-3zM33,123h3v3h-3zM36,123h3v3h-3zM39,123h3v3h-3zM45,123h3v3h-3zM54,123h3v3h-3zM57,123h3v3h-3zM78,123h3v3h-3zM84,123h3v3h-3zM87,123h3v3h-3zM90,123h3v3h-3zM108,123h3v3h-3zM114,123h3v3h-3zM129,123h3v3h-3zM132,123h3v3h-3zM135,123h3v3h-3zM147,123h3v3h-3zM153,123h3v3h-3zM162,123h3v3h-3zM165,123h3v3h-3zM9,126h3v3h-3zM15,126h3v3h-3zM30,126h3v3h-3zM36,126h3v3h-3zM45,126h3v3h-3zM54,126h3v3h-3zM57,126h3v3h-3zM60,126h3v3h-3zM63,126h3v3h-3zM66,126h3v3h-3zM75,126h3v3h-3zM90,126h3v3h-3zM93,126h3v3h-3zM96,126h3v3h-3zM114,126h3v3h-3zM120,126h3v3h-3zM132,126h3v3h-3zM135,126h3v3h-3zM138,126h3v3h-3zM147,126h3v3h-3zM150,126h3v3h-3zM156,126h3v3h-3zM24,129h3v3h-3zM27,129h3v3h-3zM33,129h3v3h-3zM36,129h3v3h-3zM39,129h3v3h-3zM42,129h3v3h-3zM54,129h3v3h-3zM57,129h3v3h-3zM63,129h3v3h-3zM66,129h3v3h-3zM84,129h3v3h-3zM90,129h3v3h-3zM102,129h3v3h-3zM108,129h3v3h-3zM117,129h3v3h-3zM120,129h3v3h-3zM123,129h3v3h-3zM126,129h3v3h-3zM129,129h3v3h-3zM141,129h3v3h-3zM144,129h3v3h-3zM150,129h3v3h-3zM153,129h3v3h-3zM162,129h3v3h-3zM165,129h3v3h-3zM12,132h3v3h-3zM15,132h3v3h-3zM18,132h3v3h-3zM21,132h3v3h-3zM30,132h3v3h-3zM36,132h3v3h-3zM51,132h3v3h-3zM63,132h3v3h-3zM69,132h3v3h-3zM72,132h3v3h-3zM75,132h3v3h-3zM84,132h3v3h-3zM90,132h3v3h-3zM96,132h3v3h-3zM99,132h3v3h-3zM102,132h3v3h-3zM114,132h3v3h-3zM123,132h3v3h-3zM129,132h3v3h-3zM135,132h3v3h-3zM141,132h3v3h-3zM144,132h3v3h-3zM147,132h3v3h-3zM150,132h3v3h-3zM159,132h3v3h-3zM9,135h3v3h-3zM18,135h3v3h-3zM24,135h3v3h-3zM27,135h3v3h-3zM33,135h3v3h-3zM48,135h3v3h-3zM54,135h3v3h-3zM57,135h3v3h-3zM63,135h3v3h-3zM69,135h3v3h-3zM78,135h3v3h-3zM81,135h3v3h-3zM84,135h3v3h-3zM90,135h3v3h-3zM99,135h3v3h-3zM105,135h3v3h-3zM114,135h3v3h-3zM117,135h3v3h-3zM120,135h3v3h-3zM123,135h3v3h-3zM132,135h3v3h-3zM153,135h3v3h-3zM156,135h3v3h-3zM159,135h3v3h-3zM18,138h3v3h-3zM24,138h3v3h-3zM39,138h3v3h-3zM48,138h3v3h-3zM51,138h3v3h-3zM60,138h3v3h-3zM66,138h3v3h-3zM72,138h3v3h-3zM78,138h3v3h-3zM87,138h3v3h-3zM93,138h3v3h-3zM102,138h3v3h-3zM108,138h3v3h-3zM111,138h3v3h-3zM120,138h3v3h-3zM138,138h3v3h-3zM141,138h3v3h-3zM147,138h3v3h-3zM156,138h3v3h-3zM159,138h3v3h-3zM162,138h3v3h-3zM12,141h3v3h-3zM21,141h3v3h-3zM27,141h3v3h-3zM30,141h3v3h-3zM33,141h3v3h-3zM42,141h3v3h-3zM45,141h3v3h-3zM48,141h3v3h-3zM54,141h3v3h-3zM57,141h3v3h-3zM66,141h3v3h-3zM81,141h3v3h-3zM84,141h3v3h-3zM87,141h3v3h-3zM90,141h3v3h-3zM93,141h3v3h-3zM102,141h3v3h-3zM105,141h3v3h-3zM108,141h3v3h-3zM111,141h3v3h-3zM117,141h3v3h-3zM138,141h3v3h-3zM141,141h3v3h-3zM144,141h3v3h-3zM147,141h3v3h-3zM150,141h3v3h-3zM153,141h3v3h-3zM156,141h3v3h-3zM159,141h3v3h-3zM33,144h3v3h-3zM39,144h3v3h-3zM42,144h3v3h-3zM45,144h3v3h-3zM54,144h3v3h-3zM57,144h3v3h-3zM63,144h3v3h-3zM66,144h3v3h-3zM72,144h3v3h-3zM75,144h3v3h-3zM78,144h3v3h-3zM81,144h3v3h-3zM93,144h3v3h-3zM96,144h3v3h-3zM99,144h3v3h-3zM102,144h3v3h-3zM108,144h3v3h-3zM111,144h3v3h-3zM114,144h3v3h-3zM117,144h3v3h-3zM120,144h3v3h-3zM123,144h3v3h-3zM132,144h3v3h-3zM138,144h3v3h-3zM141,144h3v3h-3zM153,144h3v3h-3zM156,144h3v3h-3zM165,144h3v3h-3zM9,147h3v3h-3zM12,147h3v3h-3zM15,147h3v3h-3zM18,147h3v3h-3zM21,147h3v3h-3zM24,147h3v3h-3zM27,147h3v3h-3zM33,147h3v3h-3zM36,147h3v3h-3zM39,147h3v3h-3zM51,147h3v3h-3zM60,147h3v3h-3zM69,147h3v3h-3zM75,147h3v3h-3zM81,147h3v3h-3zM87,147h3v3h-3zM93,147h3v3h-3zM96,147h3v3h-3zM105,147h3v3h-3zM108,147h3v3h-3zM111,147h3v3h-3zM114,147h3v3h-3zM123,147h3v3h-3zM126,147h3v3h-3zM138,147h3v3h-3zM141,147h3v3h-3zM147,147h3v3h-3zM153,147h3v3h-3zM159,147h3v3h-3zM162,147h3v3h-3zM9,150h3v3h-3zM27,150h3v3h-3zM33,150h3v3h-3zM36,150h3v3h-3zM39,150h3v3h-3zM42,150h3v3h-3zM45,150h3v3h-3zM48,150h3v3h-3zM51,150h3v3h-3zM54,150h3v3h-3zM60,150h3v3h-3zM81,150h3v3h-3zM93,150h3v3h-3zM99,150h3v3h-3zM114,150h3v3h-3zM126,150h3v3h-3zM129,150h3v3h-3zM132,150h3v3h-3zM141,150h3v3h-3zM153,150h3v3h-3zM165,150h3v3h-3zM9,153h3v3h-3zM15,153h3v3h-3zM18,153h3v3h-3zM21,153h3v3h-3zM27,153h3v3h-3zM36,153h3v3h-3zM51,153h3v3h-3zM54,153h3v3h-3zM57,153h3v3h-3zM66,153h3v3h-3zM69,153h3v3h-3zM72,153h3v3h-3zM78,153h3v3h-3zM81,153h3v3h-3zM84,153h3v3h-3zM87,153h3v3h-3zM90,153h3v3h-3zM93,153h3v3h-3zM96,153h3v3h-3zM99,153h3v3h-3zM105,153h3v3h-3zM111,153h3v3h-3zM114,153h3v3h-3zM120,153h3v3h-3zM129,153h3v3h-3zM132,153h3v3h-3zM135,153h3v3h-3zM138,153h3v3h-3zM141,153h3v3h-3zM144,153h3v3h-3zM147,153h3v3h-3zM150,153h3v3h-3zM153,153h3v3h-3zM156,153h3v3h-3zM159,153h3v3h-3zM162,153h3v3h-3zM165,153h3v3h-3zM9,156h3v3h-3zM15,156h3v3h-3zM18,156h3v3h-3zM21,156h3v3h-3zM27,156h3v3h-3zM33,156h3v3h-3zM39,156h3v3h-3zM45,156h3v3h-3zM51,156h3v3h-3zM54,156h3v3h-3zM60,156h3v3h-3zM63,156h3v3h-3zM66,156h3v3h-3zM69,156h3v3h-3zM84,156h3v3h-3zM87,156h3v3h-3zM90,156h3v3h-3zM96,156h3v3h-3zM99,156h3v3h-3zM102,156h3v3h-3zM105,156h3v3h-3zM135,156h3v3h-3zM138,156h3v3h-3zM144,156h3v3h-3zM147,156h3v3h-3zM153,156h3v3h-3zM156,156h3v3h-3zM165,156h3v3h-3zM9,159h3v3h-3zM15,159h3v3h-3zM18,159h3v3h-3zM21,159h3v3h-3zM27,159h3v3h-3zM33,159h3v3h-3zM36,159h3v3h-3zM48,159h3v3h-3zM54,159h3v3h-3zM60,159h3v3h-3zM69,159h3v3h-3zM78,159h3v3h-3zM81,159h3v3h-3zM84,159h3v3h-3zM93,159h3v3h-3zM96,159h3v3h-3zM102,159h3v3h-3zM105,159h3v3h-3zM111,159h3v3h-3zM114,159h3v3h-3zM126,159h3v3h-3zM132,159h3v3h-3zM144,159h3v3h-3zM147,159h3v3h-3zM150,159h3v3h-3zM9,162h3v3h-3zM27,162h3v3h-3zM39,162h3v3h-3zM48,162h3v3h-3zM60,162h3v3h-3zM63,162h3v3h-3zM69,162h3v3h-3zM72,162h3v3h-3zM78,162h3v3h-3zM87,162h3v3h-3zM96,162h3v3h-3zM102,162h3v3h-3zM105,162h3v3h-3zM108,162h3v3h-3zM114,162h3v3h-3zM120,162h3v3h-3zM126,162h3v3h-3zM132,162h3v3h-3zM135,162h3v3h-3zM141,162h3v3h-3zM144,162h3v3h-3zM150,162h3v3h-3zM153,162h3v3h-3zM162,162h3v3h-3zM9,165h3v3h-3zM12,165h3v3h-3zM15,165h3v3h-3zM18,165h3v3h-3zM21,165h3v3h-3zM24,165h3v3h-3zM27,165h3v3h-3zM33,165h3v3h-3zM36,165h3v3h-3zM48,165h3v3h-3zM54,165h3v3h-3zM57,165h3v3h-3zM60,165h3v3h-3zM63,165h3v3h-3zM69,165h3v3h-3zM72,165h3v3h-3zM78,165h3v3h-3zM81,165h3v3h-3zM87,165h3v3h-3zM93,165h3v3h-3zM108,165h3v3h-3zM114,165h3v3h-3zM123,165h3v3h-3zM126,165h3v3h-3zM129,165h3v3h-3zM138,165h3v3h-3zM144,165h3v3h-3zM147,165h3v3h-3zM150,165h3v3h-3zM156,165h3v3h-3zM162,165h3v3h-3z"/></svg>